<?xml version="1.0" standalone="no"?>
<!DOCTYPE svg PUBLIC "-//W3C//DTD SVG 20010904//EN"
 "http://www.w3.org/TR/2001/REC-SVG-20010904/DTD/svg10.dtd">
<svg version="1.0" xmlns="http://www.w3.org/2000/svg"
 width="490.000000pt" height="249.000000pt" viewBox="0 0 490.000000 249.000000"
 preserveAspectRatio="xMidYMid meet">

<g transform="translate(0.000000,249.000000) scale(0.100000,-0.100000)"
fill="#000000" stroke="none">
<path d="M1970 2092 c-104 -68 -385 -212 -465 -238 -44 -14 -147 -37 -229 -50
-164 -28 -207 -45 -267 -106 -79 -81 -130 -246 -128 -412 1 -75 15 -192 18
-143 3 67 152 197 283 247 99 38 206 92 268 133 48 32 130 107 130 118 0 4
-53 -10 -117 -32 -99 -33 -337 -99 -358 -99 -3 0 -3 5 0 10 12 19 86 51 143
61 229 41 480 173 623 326 57 61 174 227 157 222 -2 0 -28 -17 -58 -37z"/>
<path d="M1882 1751 c-126 -44 -192 -105 -192 -179 0 -65 38 -110 174 -201 91
-62 126 -102 126 -145 0 -40 -28 -72 -89 -100 -84 -38 -297 -24 -432 30 -37
15 -41 15 -59 -1 -27 -24 -25 -32 9 -50 91 -47 385 -58 500 -19 102 34 164
123 139 197 -19 56 -46 84 -146 150 -106 70 -152 115 -152 152 0 39 78 98 169
129 102 33 216 36 252 7 l24 -19 -36 -34 c-19 -18 -63 -46 -97 -62 -34 -16
-62 -35 -62 -42 0 -7 16 -18 35 -24 32 -10 40 -9 79 14 93 54 138 123 117 175
-18 41 -49 51 -169 51 -92 0 -119 -4 -190 -29z"/>
<path d="M2694 1720 c-12 -5 -25 -13 -28 -18 -9 -15 -196 -598 -196 -611 0 -8
12 -11 32 -9 26 2 37 11 55 43 26 47 111 135 130 135 7 0 13 -6 13 -14 0 -12
-19 -31 -89 -88 -12 -10 -8 -17 24 -45 38 -33 58 -39 89 -27 24 9 19 30 -11
52 l-27 19 41 26 c69 44 79 117 18 133 -31 8 -62 -2 -103 -33 -18 -14 -36 -23
-38 -20 -3 3 29 105 70 227 42 122 73 226 70 231 -6 11 -22 11 -50 -1z"/>
<path d="M3265 1720 c-38 -15 -34 -3 -169 -430 -31 -97 -56 -184 -56 -193 0
-11 8 -17 23 -17 31 0 38 7 84 75 46 67 99 122 109 112 4 -4 -5 -33 -20 -66
-41 -91 -32 -122 38 -124 50 -1 135 67 112 91 -4 3 -13 2 -20 -3 -48 -36 -67
-47 -71 -43 -3 3 4 25 15 49 34 75 21 149 -26 149 -20 0 -54 -18 -81 -43 -13
-11 -26 -18 -29 -14 -4 3 28 105 71 226 42 121 74 225 70 230 -7 13 -22 13
-50 1z"/>
<path d="M3510 1435 c-17 -21 -4 -62 22 -68 24 -7 68 16 68 34 0 6 -5 19 -10
30 -13 23 -62 26 -80 4z"/>
<path d="M2946 1343 c-8 -10 -40 -45 -71 -79 -30 -33 -55 -66 -55 -72 0 -20
23 -13 59 18 19 16 38 27 43 24 4 -3 8 -28 8 -55 0 -59 -17 -71 -62 -45 -37
22 -78 14 -78 -15 0 -44 123 -63 170 -26 50 39 61 89 34 157 -15 36 -15 41 1
56 9 9 15 24 13 33 -5 23 -44 26 -62 4z"/>
<path d="M2245 1302 c-43 -20 -101 -79 -116 -119 -15 -39 -11 -71 12 -94 25
-25 64 -21 111 12 25 18 32 19 39 8 5 -8 9 -17 9 -21 0 -16 49 -19 76 -5 37
19 80 65 70 74 -4 4 -21 0 -38 -10 -17 -10 -33 -15 -36 -12 -3 2 5 31 18 62
12 32 24 70 27 86 5 23 2 27 -19 27 -14 0 -45 2 -69 5 -31 4 -56 0 -84 -13z
m81 -36 c6 -16 -68 -121 -92 -130 -42 -16 -46 15 -9 73 38 61 89 89 101 57z"/>
<path d="M3477 1298 c-27 -26 -67 -129 -67 -175 0 -38 22 -57 55 -49 27 7 115
82 115 97 0 17 -34 9 -57 -13 -13 -12 -26 -19 -29 -16 -3 4 6 39 21 79 14 40
24 78 21 86 -8 20 -32 16 -59 -9z"/>
<path d="M720 970 l0 -40 1825 0 1825 0 0 40 0 40 -1825 0 -1825 0 0 -40z"/>
<path d="M745 830 c-11 -34 4 -56 46 -73 30 -12 40 -21 37 -34 -5 -29 -43 -27
-72 4 l-26 28 0 -26 c0 -23 5 -27 42 -33 34 -6 45 -3 61 13 30 30 16 64 -34
84 -34 13 -40 20 -36 37 7 26 -10 26 -18 0z"/>
<path d="M809 841 c7 -5 17 -15 22 -22 6 -10 9 -8 9 9 0 16 -6 22 -22 22 -17
0 -19 -3 -9 -9z"/>
<path d="M921 831 c-13 -24 -14 -42 -2 -22 11 16 46 -82 37 -104 -4 -12 3 -15
31 -15 28 0 33 3 24 13 -6 8 -21 42 -35 77 -26 70 -39 82 -55 51z"/>
<path d="M1039 808 c8 -55 7 -90 -2 -105 -6 -10 2 -13 30 -12 21 0 32 3 26 6
-15 5 -18 73 -4 73 15 0 53 -59 46 -70 -4 -6 8 -10 29 -10 l36 0 -40 52 c-37
50 -38 53 -22 71 9 11 26 23 37 28 16 6 14 8 -13 8 -21 1 -31 -3 -27 -10 7
-11 -32 -59 -48 -59 -5 0 -7 16 -5 35 4 32 2 35 -22 35 -26 0 -27 -2 -21 -42z"/>
<path d="M1220 831 c-15 -30 -1 -51 48 -72 35 -15 43 -23 39 -39 -7 -26 -1
-25 13 1 9 16 8 26 -5 45 -8 13 -21 24 -28 24 -7 0 -23 7 -35 16 -18 13 -21
19 -11 30 8 10 8 14 1 14 -6 0 -16 -9 -22 -19z"/>
<path d="M1295 830 c10 -11 20 -20 22 -20 1 0 3 9 3 20 0 14 -7 20 -22 20 -20
0 -21 -1 -3 -20z"/>
<path d="M1358 843 c16 -6 16 -125 0 -141 -9 -9 -3 -12 27 -12 30 0 36 3 27
12 -7 7 -12 25 -12 40 0 25 4 28 31 28 30 0 31 -1 27 -40 -4 -40 -3 -40 32
-40 23 0 30 3 22 9 -10 6 -13 28 -10 80 3 70 3 71 -22 71 -24 0 -26 -3 -22
-35 4 -33 3 -35 -27 -35 -28 0 -31 3 -31 29 0 16 6 32 13 34 6 3 -6 5 -28 5
-22 0 -34 -2 -27 -5z"/>
<path d="M1548 843 c16 -6 16 -125 0 -141 -9 -9 -3 -12 27 -12 30 0 36 3 27
12 -16 16 -16 135 1 141 6 3 -6 5 -28 5 -22 0 -34 -2 -27 -5z"/>
<path d="M1741 831 c-13 -24 -14 -42 -2 -22 11 16 46 -82 37 -104 -4 -12 3
-15 31 -15 30 0 34 2 23 15 -7 8 -23 43 -35 77 -25 68 -38 80 -54 49z"/>
<path d="M1861 783 c7 -72 23 -93 68 -93 l26 0 -25 13 c-23 12 -25 18 -25 80
0 65 -1 67 -26 67 -25 0 -25 0 -18 -67z"/>
<path d="M1979 788 c5 -67 8 -63 13 15 2 27 -1 47 -7 47 -6 0 -8 -24 -6 -62z"/>
<path d="M2021 818 c1 -21 3 -26 6 -13 3 11 12 26 21 33 14 11 13 12 -6 12
-18 0 -22 -5 -21 -32z"/>
<path d="M2070 776 c0 -50 -4 -76 -12 -79 -7 -3 7 -5 32 -5 25 0 39 2 33 5 -9
3 -13 29 -13 79 0 67 -2 74 -20 74 -18 0 -20 -7 -20 -74z"/>
<path d="M2132 838 c9 -7 18 -20 21 -28 3 -8 6 -3 6 13 1 21 -3 27 -21 27 -19
0 -20 -2 -6 -12z"/>
<path d="M2201 824 c-34 -43 -21 -102 26 -123 33 -15 54 -14 23 2 -20 10 -26
21 -28 59 -2 26 2 56 8 68 16 29 -5 25 -29 -6z"/>
<path d="M2280 835 c8 -10 11 -36 8 -75 -5 -64 2 -73 26 -38 22 31 20 84 -4
108 -24 24 -49 28 -30 5z"/>
<path d="M2428 779 c3 -52 0 -74 -10 -80 -8 -6 4 -9 32 -9 28 0 40 3 32 9 -10
6 -13 28 -10 80 3 70 3 71 -22 71 -25 0 -25 -1 -22 -71z"/>
<path d="M2514 834 c19 -19 20 -36 4 -53 -11 -10 -8 -12 12 -9 46 6 35 78 -12
78 -18 0 -18 -1 -4 -16z"/>
<path d="M2617 830 c-3 -11 -2 -18 2 -16 4 3 15 -20 25 -51 13 -45 14 -58 4
-65 -7 -4 24 -7 72 -7 47 0 79 3 73 6 -7 2 -13 20 -13 39 0 27 4 34 19 34 20
0 31 -18 31 -50 0 -10 7 -20 15 -24 18 -6 45 2 45 15 0 4 -7 6 -15 3 -10 -4
-15 0 -15 14 0 11 -7 25 -15 32 -13 10 -12 15 8 30 18 15 20 22 11 37 -6 10
-22 19 -35 21 -17 2 -20 0 -11 -6 22 -15 11 -57 -17 -60 -21 -3 -23 -1 -19 32
4 33 2 36 -22 36 -25 0 -25 0 -22 -75 3 -69 2 -75 -16 -75 -16 0 -26 16 -47
75 -27 74 -48 94 -58 55z"/>
<path d="M2900 828 c1 -21 2 -21 11 -5 5 9 17 17 24 17 20 0 22 -136 3 -143
-7 -3 6 -6 30 -6 41 -1 42 0 27 16 -14 13 -16 30 -13 80 l4 63 -43 0 c-38 0
-43 -3 -43 -22z"/>
<path d="M3007 842 c7 -4 16 -19 22 -32 9 -24 10 -24 10 8 1 27 -3 32 -21 32
-15 0 -19 -3 -11 -8z"/>
<path d="M3070 831 c-15 -30 -1 -51 48 -72 37 -16 43 -23 39 -42 -6 -21 -6
-21 8 -3 8 11 15 25 15 31 0 14 -32 45 -46 45 -5 0 -20 7 -32 16 -18 13 -21
19 -11 30 8 10 8 14 1 14 -6 0 -16 -9 -22 -19z"/>
<path d="M3145 830 c10 -11 20 -20 22 -20 1 0 3 9 3 20 0 14 -7 20 -22 20 -20
0 -21 -1 -3 -20z"/>
<path d="M3268 843 c16 -6 16 -125 0 -141 -9 -9 -2 -12 32 -12 34 1 41 3 28
10 -20 12 -25 130 -5 142 7 4 -6 7 -28 7 -22 0 -34 -3 -27 -6z"/>
<path d="M3358 843 c6 -2 12 -17 12 -33 0 -16 -6 -31 -12 -33 -7 -3 -4 -6 8
-6 42 -2 61 49 25 69 -11 5 -26 10 -33 9 -10 0 -10 -2 0 -6z"/>
<path d="M3427 838 c6 -7 21 -43 34 -80 13 -38 27 -68 31 -68 14 0 31 42 19
49 -14 9 -42 91 -35 102 3 5 -9 9 -27 9 -24 0 -29 -3 -22 -12z"/>
<path d="M3534 815 c0 -19 0 -34 1 -32 1 1 9 17 18 35 14 30 14 32 -1 32 -13
0 -17 -9 -18 -35z"/>
<path d="M3581 818 c1 -21 3 -26 6 -13 3 11 12 26 21 33 14 11 13 12 -6 12
-18 0 -22 -5 -21 -32z"/>
<path d="M3630 776 c0 -50 -4 -76 -12 -79 -7 -3 7 -5 32 -5 25 0 39 2 33 5 -9
3 -13 29 -13 79 0 67 -2 74 -20 74 -18 0 -20 -7 -20 -74z"/>
<path d="M3692 838 c9 -7 18 -20 21 -28 3 -8 6 -3 6 13 1 21 -3 27 -21 27 -19
0 -20 -2 -6 -12z"/>
<path d="M3844 800 c7 -36 7 -59 -1 -80 l-11 -30 69 0 69 0 0 33 0 32 -13 -25
c-9 -18 -22 -26 -46 -28 l-33 -3 4 75 c3 76 3 76 -23 76 -25 0 -25 0 -15 -50z"/>
<path d="M3971 823 c0 -16 3 -21 6 -13 3 8 12 21 21 28 14 10 13 12 -6 12 -18
0 -22 -6 -21 -27z"/>
<path d="M4020 776 c0 -50 -4 -76 -12 -79 -7 -3 7 -5 32 -5 25 0 39 2 33 5 -9
3 -13 29 -13 79 0 67 -2 74 -20 74 -18 0 -20 -7 -20 -74z"/>
<path d="M4082 838 c9 -7 18 -20 21 -28 3 -8 6 -3 6 13 1 21 -3 27 -21 27 -19
0 -20 -2 -6 -12z"/>
<path d="M4138 843 c8 -3 12 -26 12 -67 0 -36 -5 -67 -12 -75 -22 -22 107 -9
132 14 20 18 28 78 12 101 -9 14 -47 34 -64 33 -7 0 -3 -4 10 -9 21 -9 23 -15
20 -66 -3 -60 -20 -83 -52 -71 -12 5 -16 20 -16 71 0 42 4 66 13 69 6 3 -6 5
-28 5 -22 0 -34 -2 -27 -5z"/>
<path d="M878 725 c-14 -32 -14 -35 1 -35 12 0 16 10 17 35 0 19 0 35 -1 35 0
0 -8 -16 -17 -35z"/>
<path d="M1698 725 c-14 -32 -14 -35 1 -35 12 0 16 10 17 35 0 19 0 35 -1 35
0 0 -8 -16 -17 -35z"/>
<path d="M1210 721 c0 -24 3 -28 20 -24 18 5 18 7 3 29 -20 31 -23 30 -23 -5z"/>
<path d="M3060 721 c0 -24 3 -28 20 -24 18 5 18 7 3 29 -20 31 -23 30 -23 -5z"/>
<path d="M2572 715 c-10 -23 -9 -25 10 -25 16 0 19 3 11 11 -6 6 -9 18 -6 25
9 24 -3 15 -15 -11z"/>
<path d="M3717 714 c-8 -8 1 -24 14 -24 5 0 9 7 9 15 0 15 -12 20 -23 9z"/>
<path d="M4320 705 c0 -8 7 -15 15 -15 8 0 15 7 15 15 0 8 -7 15 -15 15 -8 0
-15 -7 -15 -15z"/>
<path d="M1268 693 c7 -3 16 -2 19 1 4 3 -2 6 -13 5 -11 0 -14 -3 -6 -6z"/>
<path d="M3118 693 c7 -3 16 -2 19 1 4 3 -2 6 -13 5 -11 0 -14 -3 -6 -6z"/>
</g>
</svg>
